<?xml version="1.0" encoding="UTF-8"?>
<!DOCTYPE svg PUBLIC "-//W3C//DTD SVG 1.1//EN" "http://www.w3.org/Graphics/SVG/1.1/DTD/svg11.dtd">
<!-- Creator: CorelDRAW 2020 (64-Bit Evaluation Version) -->
<svg xmlns="http://www.w3.org/2000/svg" xml:space="preserve" width="0.535433in" height="0.425197in" version="1.1" style="shape-rendering:geometricPrecision; text-rendering:geometricPrecision; image-rendering:optimizeQuality; fill-rule:evenodd; clip-rule:evenodd"
viewBox="0 0 535.43 425.2"
 xmlns:xlink="http://www.w3.org/1999/xlink"
 xmlns:xodm="http://www.corel.com/coreldraw/odm/2003">
 <defs>
  <style type="text/css">
   <![CDATA[
    .fil0 {fill:white}
   ]]>
  </style>
 </defs>
 <g id="Layer_x0020_1">
  <metadata id="CorelCorpID_0Corel-Layer"/>
  <g id="_1736609546000">
   <path class="fil0" d="M130.93 274.75c-10.93,0 -19.81,8.88 -19.81,19.8 0,10.93 8.89,19.81 19.81,19.81 10.93,0 19.83,-8.89 19.83,-19.81 0,-10.91 -8.9,-19.8 -19.83,-19.8zm0 60.27c-22.32,0 -40.48,-18.16 -40.48,-40.48 0,-22.31 18.15,-40.46 40.47,-40.46 22.33,0 40.49,18.15 40.49,40.46 0,22.32 -18.16,40.48 -40.48,40.48z"/>
   <path class="fil0" d="M221.11 139.2c-10.93,0 -19.81,8.88 -19.81,19.8 0,10.93 8.89,19.81 19.81,19.81 10.94,0 19.83,-8.89 19.83,-19.81 0,-10.92 -8.9,-19.8 -19.83,-19.8zm0 60.28c-22.31,0 -40.47,-18.16 -40.47,-40.48 0,-22.31 18.16,-40.46 40.47,-40.46 22.33,0 40.5,18.15 40.5,40.46 0,22.31 -18.17,40.48 -40.5,40.48z"/>
   <path class="fil0" d="M371.94 159.07c-10.93,0 -19.81,8.89 -19.81,19.82 0,10.92 8.89,19.8 19.81,19.8 10.93,0 19.82,-8.88 19.82,-19.8 0,-10.93 -8.89,-19.82 -19.82,-19.82zm0 60.28c-22.31,0 -40.48,-18.15 -40.48,-40.46 0,-22.32 18.16,-40.48 40.48,-40.48 22.32,0 40.48,18.16 40.48,40.48 0,22.31 -18.16,40.46 -40.48,40.46z"/>
   <path class="fil0" d="M488.31 75.22c-10.93,0 -19.82,8.89 -19.82,19.81 0,10.92 8.89,19.81 19.82,19.81 10.94,0 19.83,-8.89 19.83,-19.81 0,-10.93 -8.89,-19.81 -19.83,-19.81zm0 60.28c-22.32,0 -40.48,-18.15 -40.48,-40.47 0,-22.32 18.16,-40.48 40.48,-40.48 22.33,0 40.49,18.16 40.49,40.48 0,22.31 -18.17,40.47 -40.49,40.47z"/>
   <path class="fil0" d="M398.94 172.72c-3.22,0 -6.39,-1.49 -8.4,-4.3 -3.33,-4.63 -2.27,-11.09 2.37,-14.41l61.87 -44.44c4.63,-3.33 11.09,-2.27 14.41,2.37 3.33,4.64 2.27,11.09 -2.36,14.42l-61.87 44.44c-1.82,1.31 -3.93,1.94 -6.02,1.94z"/>
   <path class="fil0" d="M337.87 188.37c-0.56,0 -1.11,-0.04 -1.67,-0.13l-87.34 -14.24c-5.63,-0.92 -9.46,-6.22 -8.54,-11.85 0.92,-5.64 6.25,-9.46 11.86,-8.54l87.34 14.25c5.63,0.92 9.45,6.23 8.53,11.85 -0.82,5.07 -5.2,8.67 -10.18,8.67z"/>
   <path class="fil0" d="M151.54 272.38c-2.05,0 -4.12,-0.61 -5.93,-1.87 -4.67,-3.28 -5.8,-9.73 -2.52,-14.39l53.02 -75.56c3.28,-4.67 9.72,-5.8 14.39,-2.52 4.67,3.28 5.8,9.72 2.52,14.39l-53.02 75.56c-2.01,2.86 -5.22,4.4 -8.47,4.4z"/>
   <path class="fil0" d="M436.07 388.28l-363.6 0c-18.74,0 -33.98,-15.24 -33.98,-33.98l0 -271.96c0,-5.71 4.62,-10.33 10.33,-10.33 5.7,0 10.33,4.62 10.33,10.33l0 271.96c0,7.34 5.97,13.32 13.32,13.32l363.6 0c5.71,0 10.33,4.62 10.33,10.33 0,5.7 -4.63,10.33 -10.33,10.33z"/>
   <path class="fil0" d="M32.12 66.08l35.72 0 -17.85 -32.15 -17.86 32.15zm53.27 20.66l-70.83 0c-3.66,0 -7.05,-1.93 -8.91,-5.09 -1.86,-3.15 -1.91,-7.06 -0.13,-10.26l33.73 -60.71c1.81,-3.28 5.27,-5.31 9.03,-5.31l3.37 0c3.76,0 7.21,2.04 9.03,5.31l33.73 60.71c1.78,3.2 1.73,7.1 -0.13,10.26 -1.85,3.16 -5.24,5.09 -8.91,5.09z"/>
   <path class="fil0" d="M458.59 359.29l0 35.71 32.15 -17.86 -32.15 -17.85zm-10.33 63.6c-1.81,0 -3.63,-0.48 -5.24,-1.43 -3.15,-1.85 -5.09,-5.24 -5.09,-8.9l0 -70.83c0,-3.66 1.94,-7.05 5.09,-8.91 3.16,-1.85 7.06,-1.9 10.26,-0.13l60.71 33.73c3.28,1.82 5.31,5.28 5.31,9.03l0 3.38c0,3.75 -2.04,7.21 -5.31,9.03l-60.71 33.72c-1.56,0.87 -3.29,1.3 -5.02,1.3z"/>
  </g>
 </g>
</svg>
