<?xml version="1.0" encoding="UTF-8"?>
<!DOCTYPE svg PUBLIC "-//W3C//DTD SVG 1.1//EN" "http://www.w3.org/Graphics/SVG/1.1/DTD/svg11.dtd">
<!-- Creator: CorelDRAW 2020 (64-Bit Evaluation Version) -->
<svg xmlns="http://www.w3.org/2000/svg" xml:space="preserve" width="0.531496in" height="0.496063in" version="1.1" style="shape-rendering:geometricPrecision; text-rendering:geometricPrecision; image-rendering:optimizeQuality; fill-rule:evenodd; clip-rule:evenodd"
viewBox="0 0 531.5 496.06"
 xmlns:xlink="http://www.w3.org/1999/xlink"
 xmlns:xodm="http://www.corel.com/coreldraw/odm/2003">
 <defs>
  <style type="text/css">
   <![CDATA[
    .fil0 {fill:white}
   ]]>
  </style>
 </defs>
 <g id="Layer_x0020_1">
  <metadata id="CorelCorpID_0Corel-Layer"/>
  <g id="_1736671049984">
   <path class="fil0" d="M173.58 256.5c-2.65,0 -5.3,-1 -7.34,-3.02l-46.83 -46.85 -23.69 23.69c-5.17,5.17 -12.06,8.01 -19.39,8.01 -7.33,0 -14.22,-2.84 -19.42,-8.01l-48.35 -48.37c-5.17,-5.17 -8.02,-12.05 -8.02,-19.39 0,-7.34 2.85,-14.23 8.02,-19.4l120.9 -120.9c9.12,-9.13 25.55,-14.11 38.19,-11.57l87.36 17.47c8.26,1.64 14.15,6.4 16.19,13.05 2,6.65 -0.24,13.87 -6.2,19.82l-56.89 56.87 45.73 45.74c4.06,4.03 4.06,10.57 -0,14.61 -4.03,4.04 -10.57,4.04 -14.6,0l-53.03 -53.04c-1.96,-1.94 -3.03,-4.56 -3.03,-7.31 0,-2.74 1.07,-5.37 3.03,-7.3l62.6 -62.61 -85.23 -17.04c-5.82,-1.17 -15.29,1.71 -19.52,5.91l-120.89 120.9c-1.27,1.27 -1.97,2.97 -1.97,4.79 0,1.82 0.7,3.52 1.96,4.78l48.37 48.37c2.51,2.52 7.02,2.54 9.54,0l31.02 -31c3.86,-3.87 10.71,-3.87 14.6,0l54.17 54.15c4.03,4.03 4.03,10.57 0,14.61 -2.03,2.02 -4.69,3.02 -7.3,3.02z"/>
   <path class="fil0" d="M420.31 493.87c-8.75,0 -16.77,-3.12 -22.56,-8.89l-115.49 -115.52c-4.06,-4.03 -4.07,-10.57 -0,-14.61 4.03,-4.04 10.57,-4.04 14.6,0l115.49 115.52c5.37,5.37 17.32,2.82 25.59,-5.43l28.51 -28.5c8.26,-8.25 10.78,-20.2 5.44,-25.57l-117.91 -117.85c-4.03,-4.03 -4.03,-10.57 0,-14.61 4.03,-4.04 10.57,-4.04 14.63,0l117.87 117.85c13.6,13.61 11.15,38.2 -5.44,54.8l-28.51 28.49c-7.68,7.68 -17.32,12.64 -27.14,13.97 -1.72,0.23 -3.41,0.35 -5.09,0.35z"/>
   <path class="fil0" d="M137.53 471.49c6.13,1.38 12.36,2.09 18.42,2.09 19.15,0 36.64,-6.95 49.28,-19.57 20.77,-20.76 25.48,-53.91 12.02,-84.46 -1.72,-3.9 -0.86,-8.45 2.17,-11.47l170.63 -170.65c2.89,-2.89 7.23,-3.8 11.05,-2.33 10.23,3.97 20.73,5.98 31.2,5.98 19.18,0 36.7,-6.97 49.34,-19.62 16.91,-16.89 23.14,-42.3 17.46,-67.71l-35.37 35.37c-5.78,5.81 -13.53,9.02 -21.73,9.02 -8.23,0 -15.94,-3.2 -21.76,-9.02l-28.89 -28.88c-5.82,-5.81 -9.02,-13.54 -9.02,-21.76 0,-8.22 3.2,-15.94 9.02,-21.76l35.37 -35.36c-6.17,-1.39 -12.4,-2.1 -18.46,-2.1 -19.15,0 -36.64,6.95 -49.28,19.57 -19.9,19.94 -25.13,50.81 -13.63,80.56 1.48,3.81 0.58,8.14 -2.31,11.04l-173.38 173.36c-2.75,2.77 -6.85,3.73 -10.57,2.5 -8.95,-2.99 -18.08,-4.52 -27.13,-4.52 -19.18,0 -36.71,6.97 -49.35,19.62 -16.91,16.9 -23.17,42.3 -17.49,67.71l35.37 -35.37c5.82,-5.81 13.53,-9.01 21.76,-9.01 8.23,0 15.94,3.2 21.76,9.02l28.86 28.89c5.82,5.81 9.02,13.54 9.02,21.76 0,8.22 -3.2,15.94 -9.02,21.75l-35.33 35.37zm18.43 22.76c-14.09,0 -28.14,-2.89 -41.7,-8.59 -3.17,-1.33 -5.47,-4.16 -6.13,-7.53 -0.65,-3.38 0.41,-6.86 2.82,-9.29l47.31 -47.33c1.93,-1.91 2.96,-4.44 2.96,-7.14 0,-2.7 -1.04,-5.23 -2.96,-7.14l-28.89 -28.9c-3.82,-3.82 -10.47,-3.81 -14.29,-0l-47.31 47.33c-2.41,2.44 -5.89,3.51 -9.3,2.83 -3.37,-0.66 -6.2,-2.96 -7.5,-6.13 -15.91,-37.88 -9.23,-79.33 17.01,-105.58 16.57,-16.55 39.29,-25.67 63.98,-25.67 9.16,0 18.39,1.24 27.48,3.7l164.39 -164.39c-11.4,-35.5 -3.75,-71.86 20.56,-96.2 16.53,-16.52 39.22,-25.62 63.88,-25.62 14.12,0 28.13,2.89 41.7,8.59 3.17,1.33 5.48,4.16 6.13,7.54 0.69,3.37 -0.38,6.86 -2.82,9.29l-47.31 47.31c-1.89,1.91 -2.96,4.44 -2.96,7.15 0,2.7 1.07,5.24 2.96,7.15l28.89 28.88c3.82,3.83 10.47,3.82 14.29,0l47.32 -47.31c2.44,-2.44 5.92,-3.5 9.3,-2.83 3.37,0.66 6.2,2.96 7.54,6.13 15.91,37.89 9.23,79.33 -17.05,105.58 -16.52,16.56 -39.25,25.67 -63.94,25.67l0 0c-10.85,0 -21.66,-1.71 -32.23,-5.09l-161.22 161.21c13.43,36.56 6.3,75.47 -19.01,100.77 -16.53,16.52 -39.19,25.62 -63.87,25.62z"/>
  </g>
 </g>
</svg>
