<?xml version="1.0" encoding="UTF-8"?>
<!DOCTYPE svg PUBLIC "-//W3C//DTD SVG 1.1//EN" "http://www.w3.org/Graphics/SVG/1.1/DTD/svg11.dtd">
<!-- Creator: CorelDRAW 2020 (64-Bit Evaluation Version) -->
<svg xmlns="http://www.w3.org/2000/svg" xml:space="preserve" width="0.444882in" height="0.507874in" version="1.1" style="shape-rendering:geometricPrecision; text-rendering:geometricPrecision; image-rendering:optimizeQuality; fill-rule:evenodd; clip-rule:evenodd"
viewBox="0 0 444.88 507.87"
 xmlns:xlink="http://www.w3.org/1999/xlink"
 xmlns:xodm="http://www.corel.com/coreldraw/odm/2003">
 <defs>
  <style type="text/css">
   <![CDATA[
    .fil0 {fill:white}
   ]]>
  </style>
 </defs>
 <g id="Layer_x0020_1">
  <metadata id="CorelCorpID_0Corel-Layer"/>
  <g id="_1736666243744">
   <path class="fil0" d="M126.66 141.76c-29.54,0.13 -53.54,24.22 -53.54,53.79 0,29.66 24.13,53.8 53.79,53.8l209.67 -0c35.27,0 63.96,-28.7 63.96,-63.97 0,-35.27 -28.69,-63.96 -63.96,-63.96 -6.22,0 -12.41,0.91 -18.41,2.72 -3.13,0.94 -6.52,0.35 -9.14,-1.6 -2.62,-1.94 -4.17,-5.02 -4.17,-8.29 0,-0.11 0,-0.23 0,-0.35 -0.13,-46.39 -37.91,-84.08 -84.32,-84.08 -46.5,0 -84.32,37.83 -84.32,84.33 0,5.16 0.48,10.35 1.43,15.44 0.57,3.05 -0.26,6.19 -2.27,8.56 -2,2.37 -4.9,3.76 -8.06,3.67 -0.15,-0 -0.44,-0.02 -0.68,-0.03zm209.93 128.25l-209.67 0c-41.06,0 -74.45,-33.4 -74.45,-74.46 0,-37.3 27.57,-68.28 63.4,-73.63 -0.2,-2.6 -0.29,-5.2 -0.29,-7.8 0,-57.89 47.09,-104.99 104.98,-104.99 53.64,0 98.01,40.44 104.23,92.44 3.91,-0.56 7.85,-0.83 11.8,-0.83 46.66,0 84.63,37.96 84.63,84.63 0,46.67 -37.96,84.64 -84.63,84.64z"/>
   <path class="fil0" d="M218.24 401.5l-167.34 0c-5.7,0 -10.33,-4.63 -10.33,-10.33 0,-5.71 4.63,-10.33 10.33,-10.33l157 0 0 -111.67c0,-5.7 4.63,-10.33 10.33,-10.33 5.7,0 10.33,4.63 10.33,10.33l0 122c0,5.7 -4.63,10.33 -10.33,10.33z"/>
   <path class="fil0" d="M289.39 473.94c0,12.86 -10.44,23.3 -23.3,23.3 -12.86,0 -23.3,-10.43 -23.3,-23.3 0,-12.87 10.44,-23.3 23.3,-23.3 12.86,0 23.3,10.43 23.3,23.3z"/>
   <path class="fil0" d="M188.23 481.29c0,12.87 -10.44,23.3 -23.3,23.3 -12.86,-0 -23.3,-10.43 -23.3,-23.3 0,-12.87 10.44,-23.3 23.3,-23.3 12.87,0 23.3,10.43 23.3,23.3z"/>
   <path class="fil0" d="M53.96 389.33c0,12.87 -10.44,23.3 -23.3,23.3 -12.86,-0 -23.3,-10.43 -23.3,-23.3 0,-12.87 10.44,-23.3 23.3,-23.3 12.86,0 23.3,10.43 23.3,23.3z"/>
   <path class="fil0" d="M123.85 332.31c0,12.87 -10.43,23.3 -23.3,23.3 -12.86,0 -23.3,-10.43 -23.3,-23.3 0,-12.87 10.44,-23.3 23.3,-23.3 12.87,0 23.3,10.43 23.3,23.3z"/>
   <path class="fil0" d="M442.05 332.31c0,12.87 -10.44,23.3 -23.3,23.3 -12.86,0 -23.3,-10.43 -23.3,-23.3 0,-12.87 10.44,-23.3 23.3,-23.3 12.86,0 23.3,10.43 23.3,23.3z"/>
   <path class="fil0" d="M381.35 388.41c0,12.87 -10.44,23.3 -23.3,23.3 -12.86,0 -23.3,-10.43 -23.3,-23.3 0,-12.87 10.44,-23.3 23.3,-23.3 12.87,0 23.3,10.43 23.3,23.3z"/>
   <path class="fil0" d="M400.35 342.64l-134.27 0c-5.7,0 -10.33,-4.62 -10.33,-10.33l0 -71.73c0,-5.71 4.63,-10.33 10.33,-10.33 5.71,0 10.33,4.63 10.33,10.33l0 61.4 123.94 0c5.7,0 10.33,4.63 10.33,10.33 0,5.71 -4.63,10.33 -10.33,10.33z"/>
   <path class="fil0" d="M164.93 469.55c-5.7,0 -10.33,-4.63 -10.33,-10.33l0 -62.54c0,-5.7 4.63,-10.33 10.33,-10.33 5.7,0 10.33,4.63 10.33,10.33l0 62.53c0,5.71 -4.63,10.33 -10.33,10.33z"/>
   <path class="fil0" d="M214.59 342.64l-93.8 0c-5.7,0 -10.33,-4.62 -10.33,-10.33 0,-5.7 4.63,-10.33 10.33,-10.33l93.8 -0c5.7,0 10.33,4.63 10.33,10.33 0,5.71 -4.63,10.33 -10.33,10.33z"/>
   <path class="fil0" d="M266.09 462.19c-5.7,0 -10.33,-4.63 -10.33,-10.33l0 -119.56c0,-5.7 4.63,-10.33 10.33,-10.33 5.71,-0 10.33,4.62 10.33,10.33l0 119.55c0,5.7 -4.62,10.33 -10.33,10.33z"/>
   <path class="fil0" d="M337.82 398.74l-66.21 0c-5.7,0 -10.33,-4.62 -10.33,-10.33 0,-5.7 4.63,-10.33 10.33,-10.33l66.21 0c5.7,0 10.33,4.63 10.33,10.33 0,5.71 -4.63,10.33 -10.33,10.33z"/>
  </g>
 </g>
</svg>
