<?xml version="1.0" encoding="UTF-8"?>
<!DOCTYPE svg PUBLIC "-//W3C//DTD SVG 1.1//EN" "http://www.w3.org/Graphics/SVG/1.1/DTD/svg11.dtd">
<!-- Creator: CorelDRAW 2020 (64-Bit Evaluation Version) -->
<svg xmlns="http://www.w3.org/2000/svg" xml:space="preserve" width="0.543307in" height="0.543307in" version="1.1" style="shape-rendering:geometricPrecision; text-rendering:geometricPrecision; image-rendering:optimizeQuality; fill-rule:evenodd; clip-rule:evenodd"
viewBox="0 0 543.31 543.31"
 xmlns:xlink="http://www.w3.org/1999/xlink"
 xmlns:xodm="http://www.corel.com/coreldraw/odm/2003">
 <defs>
  <style type="text/css">
   <![CDATA[
    .fil0 {fill:white}
   ]]>
  </style>
 </defs>
 <g id="Layer_x0020_1">
  <metadata id="CorelCorpID_0Corel-Layer"/>
  <g id="_1736608561728">
   <path class="fil0" d="M221.57 26.6c-5.03,0 -9.28,3.34 -9.28,7.3l0 72.28c0,3.96 4.25,7.3 9.28,7.3l103.82 0c5.02,0 9.26,-3.35 9.26,-7.3l0 -72.28c0,-3.95 -4.24,-7.3 -9.26,-7.3l-103.82 0zm103.82 107.54l-103.82 0c-16.51,0 -29.94,-12.54 -29.94,-27.96l0 -72.28c0,-15.42 13.43,-27.95 29.94,-27.95l103.82 -0c16.5,0 29.92,12.54 29.92,27.96l0 72.28c0,15.42 -13.43,27.96 -29.92,27.96z"/>
   <path class="fil0" d="M369.39 185.39l-189.61 0c-6.82,0 -12.21,-3.04 -14.78,-8.35 -1.29,-2.67 -3.55,-9.81 3.34,-18.51l24.46 -30.81c6.3,-7.92 18,-14.07 27.22,-14.3 5.61,-0.17 10.43,4.37 10.58,10.07 0.15,5.7 -4.37,10.44 -10.07,10.59 -2.93,0.07 -8.83,3.09 -11.54,6.5l-19.18 24.16 169.56 0 -19.17 -24.17c-2.71,-3.41 -8.61,-6.42 -11.54,-6.49 -5.7,-0.14 -10.21,-4.88 -10.07,-10.59 0.14,-5.61 4.73,-10.07 10.32,-10.07 0.09,0 0.17,0 0.26,0 9.23,0.23 20.93,6.38 27.22,14.31l24.43 30.8c6.91,8.7 4.66,15.84 3.37,18.51 -2.57,5.31 -7.96,8.36 -14.78,8.36z"/>
   <path class="fil0" d="M59.99 222.88c-5.03,0 -9.28,3.34 -9.28,7.3l0 72.28c0,3.96 4.25,7.3 9.28,7.3l103.83 0c5.02,0 9.26,-3.34 9.26,-7.3l0 -72.29c0,-3.95 -4.24,-7.29 -9.26,-7.29l-103.83 0zm103.83 107.54l-103.83 0c-16.51,0 -29.94,-12.55 -29.94,-27.96l0 -72.29c0,-15.41 13.43,-27.95 29.94,-27.95l103.83 0c16.5,0 29.93,12.54 29.93,27.96l0 72.28c0,15.42 -13.43,27.96 -29.93,27.96z"/>
   <path class="fil0" d="M207.81 381.67l-189.62 0c-6.72,0 -12.25,-3.12 -14.78,-8.35 -1.29,-2.67 -3.54,-9.82 3.35,-18.52l24.46 -30.8c6.29,-7.93 17.98,-14.08 27.21,-14.31 5.57,-0.13 10.44,4.37 10.58,10.07 0.14,5.7 -4.37,10.44 -10.07,10.59 -2.93,0.07 -8.82,3.08 -11.53,6.49l-19.19 24.17 169.56 0 -19.18 -24.16c-2.66,-3.36 -8.67,-6.43 -11.53,-6.5 -5.7,-0.15 -10.21,-4.88 -10.07,-10.59 0.14,-5.7 4.86,-10.15 10.58,-10.07 9.22,0.23 20.92,6.38 27.21,14.31l24.44 30.79c6.91,8.69 4.66,15.84 3.37,18.51 -2.57,5.31 -7.95,8.36 -14.78,8.36z"/>
   <path class="fil0" d="M368.19 255.59c-5.03,0 -9.28,3.34 -9.28,7.3l0 72.28c0,3.96 4.25,7.3 9.28,7.3l103.83 0c5.02,0 9.26,-3.34 9.26,-7.3l0 -72.28c0,-3.96 -4.24,-7.3 -9.26,-7.3l-103.83 0zm103.83 107.54l-103.83 0c-16.51,0 -29.94,-12.54 -29.94,-27.96l0 -72.28c0,-15.42 13.43,-27.96 29.94,-27.96l103.83 0c16.5,0 29.92,12.54 29.92,27.96l0 72.28c0,15.42 -13.43,27.96 -29.92,27.96z"/>
   <path class="fil0" d="M516 414.38l-189.62 0c-6.72,0 -12.25,-3.12 -14.78,-8.35 -1.29,-2.67 -3.55,-9.82 3.35,-18.51l24.46 -30.8c6.29,-7.93 17.98,-14.08 27.2,-14.31 5.85,-0.19 10.44,4.37 10.58,10.07 0.15,5.7 -4.37,10.44 -10.07,10.58 -2.93,0.07 -8.83,3.09 -11.54,6.5l-19.19 24.17 169.56 0 -19.18 -24.17c-2.67,-3.36 -8.67,-6.43 -11.54,-6.5 -5.7,-0.14 -10.21,-4.88 -10.07,-10.58 0.14,-5.62 4.74,-10.07 10.32,-10.07 0.09,0 0.17,0 0.26,0 9.22,0.22 20.91,6.38 27.2,14.31l24.44 30.8c6.91,8.69 4.65,15.84 3.37,18.51 -2.56,5.31 -7.95,8.36 -14.78,8.36z"/>
   <path class="fil0" d="M205.71 517.52l136.02 0 0 -37.88 -136.02 0 0 37.88zm146.35 20.66l-156.68 0c-5.7,0 -10.33,-4.63 -10.33,-10.33l0 -58.54c0,-5.71 4.63,-10.33 10.33,-10.33l156.69 0c5.7,0 10.33,4.62 10.33,10.33l0 58.54c0,5.7 -4.62,10.33 -10.33,10.33z"/>
   <path class="fil0" d="M274.58 473.91c-5.7,0 -10.33,-4.62 -10.33,-10.33l0 -285.81c0,-5.7 4.63,-10.33 10.33,-10.33 5.71,0 10.33,4.63 10.33,10.33l0 285.81c0,5.71 -4.63,10.33 -10.33,10.33z"/>
   <path class="fil0" d="M188.36 508.91l-139.46 0c-5.71,0 -10.33,-4.63 -10.33,-10.33 0,-5.71 4.62,-10.33 10.33,-10.33l139.46 0c5.7,0 10.33,4.62 10.33,10.33 0,5.7 -4.63,10.33 -10.33,10.33z"/>
   <path class="fil0" d="M529.27 508.91l-167 0c-5.71,0 -10.33,-4.63 -10.33,-10.33 0,-5.71 4.62,-10.33 10.33,-10.33l167.01 0c5.71,0 10.33,4.62 10.33,10.33 0,5.7 -4.62,10.33 -10.33,10.33z"/>
   <path class="fil0" d="M119.49 508.34c-5.7,0 -10.33,-4.62 -10.33,-10.33l0 -117.08c0,-5.7 4.63,-10.33 10.33,-10.33 5.7,0 10.33,4.63 10.33,10.33l0 117.08c0,5.71 -4.63,10.33 -10.33,10.33z"/>
   <path class="fil0" d="M420.8 508.34c-5.71,0 -10.33,-4.62 -10.33,-10.33l0 -92.97c0,-5.7 4.62,-10.33 10.33,-10.33 5.71,0 10.33,4.63 10.33,10.33l0 92.97c0,5.71 -4.63,10.33 -10.33,10.33z"/>
  </g>
 </g>
</svg>
