<?xml version="1.0" encoding="UTF-8"?>
<!DOCTYPE svg PUBLIC "-//W3C//DTD SVG 1.1//EN" "http://www.w3.org/Graphics/SVG/1.1/DTD/svg11.dtd">
<!-- Creator: CorelDRAW 2020 (64-Bit Evaluation Version) -->
<svg xmlns="http://www.w3.org/2000/svg" xml:space="preserve" width="0.562992in" height="0.389764in" version="1.1" style="shape-rendering:geometricPrecision; text-rendering:geometricPrecision; image-rendering:optimizeQuality; fill-rule:evenodd; clip-rule:evenodd"
viewBox="0 0 562.99 389.76"
 xmlns:xlink="http://www.w3.org/1999/xlink"
 xmlns:xodm="http://www.corel.com/coreldraw/odm/2003">
 <defs>
  <style type="text/css">
   <![CDATA[
    .fil0 {fill:white}
   ]]>
  </style>
 </defs>
 <g id="Layer_x0020_1">
  <metadata id="CorelCorpID_0Corel-Layer"/>
  <g id="_1736602217392">
   <path class="fil0" d="M88.47 364.52l110.77 0 0 -37.88 -110.77 0 0 37.88zm121.1 20.66l-131.43 0c-5.7,0 -10.33,-4.63 -10.33,-10.33l0 -58.54c0,-5.71 4.62,-10.33 10.33,-10.33l131.43 0c5.7,0 10.33,4.63 10.33,10.33l0 58.54c0,5.71 -4.62,10.33 -10.33,10.33z"/>
   <path class="fil0" d="M376.17 364.52l110.76 0 0 -37.88 -110.76 0 0 37.88zm121.1 20.66l-131.43 0c-5.7,0 -10.33,-4.63 -10.33,-10.33l0 -58.54c0,-5.71 4.62,-10.33 10.33,-10.33l131.43 0c5.7,0 10.33,4.63 10.33,10.33l0 58.54c0,5.71 -4.63,10.33 -10.33,10.33z"/>
   <path class="fil0" d="M72.87 357.99l-55.68 0c-5.7,0 -10.33,-4.63 -10.33,-10.33 0,-5.71 4.63,-10.33 10.33,-10.33l55.68 0c5.7,0 10.33,4.62 10.33,10.33 0,5.7 -4.63,10.33 -10.33,10.33z"/>
   <path class="fil0" d="M548.63 357.99l-47.06 0c-5.71,0 -10.33,-4.63 -10.33,-10.33 0,-5.71 4.62,-10.33 10.33,-10.33l47.06 0c5.71,0 10.33,4.62 10.33,10.33 0,5.7 -4.62,10.33 -10.33,10.33z"/>
   <path class="fil0" d="M363.83 357.99l-146.93 0c-5.7,0 -10.33,-4.63 -10.33,-10.33 0,-5.71 4.63,-10.33 10.33,-10.33l146.93 0c5.7,0 10.33,4.62 10.33,10.33 0,5.7 -4.63,10.33 -10.33,10.33z"/>
   <path class="fil0" d="M374.73 42.98c-5.9,0 -10.7,4.55 -10.7,10.14l0 83.93c0,5.59 4.8,10.14 10.7,10.14l111.32 0c5.89,0 10.68,-4.55 10.68,-10.14l0 -83.93c0,-5.59 -4.79,-10.13 -10.68,-10.13l-111.32 0zm111.32 124.87l-111.32 0c-17.3,0 -31.36,-13.81 -31.36,-30.8l0 -83.93c0,-16.98 14.07,-30.79 31.36,-30.79l111.32 -0c17.28,0 31.33,13.81 31.33,30.8l0 83.93c0,16.98 -14.06,30.8 -31.34,30.8z"/>
   <path class="fil0" d="M533.22 227.36l-203.31 0c-6.82,0 -12.28,-3.06 -14.99,-8.39 -2.97,-5.85 -1.85,-13.06 3.07,-19.8l26.23 -35.77c6.63,-9.02 19.02,-16.03 28.83,-16.29 5.63,-0.09 10.45,4.35 10.61,10.05 0.15,5.7 -4.35,10.45 -10.05,10.6 -2.86,0.07 -9.46,3.41 -12.73,7.86l-22.78 31.06 186.93 0 -22.77 -31.07c-3.26,-4.44 -9.86,-7.78 -12.72,-7.85 -5.7,-0.15 -10.2,-4.9 -10.05,-10.6 0.15,-5.61 4.75,-10.06 10.32,-10.06 0.09,0 0.19,0 0.28,0 9.82,0.26 22.22,7.27 28.83,16.3l26.2 35.76c4.94,6.73 6.07,13.94 3.11,19.79 -2.7,5.33 -8.17,8.4 -15,8.4z"/>
   <path class="fil0" d="M143.86 321.48c-5.7,0 -10.33,-4.63 -10.33,-10.33l0 -58.38c0,-5.7 4.62,-10.33 10.33,-10.33 5.7,0 10.33,4.63 10.33,10.33l0 58.38c0,5.7 -4.63,10.33 -10.33,10.33z"/>
   <path class="fil0" d="M436.56 321.48c-5.71,0 -10.33,-4.63 -10.33,-10.33l0 -80.35c0,-5.71 4.63,-10.33 10.33,-10.33 5.71,0 10.33,4.63 10.33,10.33l0 80.35c0,5.7 -4.62,10.33 -10.33,10.33z"/>
   <path class="fil0" d="M87.63 240.22l110.41 0 0 -212.5 -110.41 0 0 212.5zm112.1 20.66l-113.79 0c-10.46,0 -18.97,-8.26 -18.97,-18.42l0 -216.99c0,-10.15 8.51,-18.41 18.97,-18.41l113.79 0c10.47,0 18.98,8.26 18.98,18.42l0 216.98c0,10.17 -8.51,18.43 -18.98,18.43z"/>
   <path class="fil0" d="M177.41 216.4l-69.14 0c-5.7,0 -10.33,-4.63 -10.33,-10.33 0,-5.7 4.63,-10.33 10.33,-10.33l69.14 0c5.7,0 10.33,4.63 10.33,10.33 0,5.7 -4.62,10.33 -10.33,10.33z"/>
   <path class="fil0" d="M177.41 185.4l-69.14 0c-5.7,0 -10.33,-4.62 -10.33,-10.33 0,-5.7 4.63,-10.33 10.33,-10.33l69.14 0c5.7,0 10.33,4.63 10.33,10.33 0,5.7 -4.62,10.33 -10.33,10.33z"/>
   <path class="fil0" d="M162.63 69.4c0,10.94 -8.87,19.8 -19.8,19.8 -10.94,0 -19.8,-8.87 -19.8,-19.8 0,-10.94 8.86,-19.8 19.8,-19.8 10.94,0 19.8,8.87 19.8,19.8z"/>
  </g>
 </g>
</svg>
