<?xml version="1.0" encoding="UTF-8"?>
<!DOCTYPE svg PUBLIC "-//W3C//DTD SVG 1.1//EN" "http://www.w3.org/Graphics/SVG/1.1/DTD/svg11.dtd">
<!-- Creator: CorelDRAW 2020 (64-Bit Evaluation Version) -->
<svg xmlns="http://www.w3.org/2000/svg" xml:space="preserve" width="0.492126in" height="0.551181in" version="1.1" style="shape-rendering:geometricPrecision; text-rendering:geometricPrecision; image-rendering:optimizeQuality; fill-rule:evenodd; clip-rule:evenodd"
viewBox="0 0 492.13 551.18"
 xmlns:xlink="http://www.w3.org/1999/xlink"
 xmlns:xodm="http://www.corel.com/coreldraw/odm/2003">
 <defs>
  <style type="text/css">
   <![CDATA[
    .fil0 {fill:white}
   ]]>
  </style>
 </defs>
 <g id="Layer_x0020_1">
  <metadata id="CorelCorpID_0Corel-Layer"/>
  <g id="_1736600555440">
   <path class="fil0" d="M114.59 332.96l10.88 183.18c0.01,0.2 0.02,0.41 0.02,0.61 0,5.7 4.06,10.35 9.05,10.35l225.3 0c4.99,0 9.05,-4.64 9.05,-10.35 0,-0.2 0,-0.41 0.02,-0.61l10.89 -183.18c-0.12,-5.58 -4.13,-10.09 -9.05,-10.09l-247.11 0c-4.91,0 -8.93,4.5 -9.04,10.09zm245.25 214.8l-225.3 0c-16.28,0 -29.54,-13.73 -29.71,-30.67l-10.89 -183.26c-0.01,-0.2 -0.02,-0.41 -0.02,-0.61 0,-17.1 13.33,-31.01 29.71,-31.01l247.11 0c16.38,0 29.71,13.91 29.71,31.01 0,0.2 -0,0.41 -0.02,0.61l-10.89 183.25c-0.17,16.95 -13.43,30.68 -29.7,30.68z"/>
   <path class="fil0" d="M430.8 508.02c-5.7,0 -10.33,-4.63 -10.33,-10.33 0,-5.7 4.63,-10.33 10.33,-10.33 15.06,-0 26.1,-4.1 32.79,-12.18 10.46,-12.61 8.67,-32.23 8.02,-37.1 -5.69,-12.13 -44.68,-95.56 -60.66,-138.71 -14.09,-38.06 -60.83,-37.37 -62.84,-37.28 -0.16,0 -0.35,0 -0.51,0l-63.13 -1.35 -0.48 0c-5.7,0 -10.33,-4.63 -10.33,-10.33l0 -32.87c0,-3.92 2.22,-7.5 5.73,-9.25 18.24,-9.06 33,-25.67 41.57,-46.77 1.85,-4.54 6.63,-7.15 11.45,-6.27 0.79,0.14 1.46,0.22 2.06,0.22 10.38,0 19.15,-13.02 19.15,-28.42 0,-15.22 -8.67,-28.22 -18.93,-28.4 -4.58,-0.08 -8.57,-3.17 -9.79,-7.58 -10.84,-39.34 -41.65,-65.77 -76.67,-65.77 -35.02,-0 -65.83,26.43 -76.68,65.77 -1.22,4.42 -5.2,7.5 -9.79,7.58 -10.26,0.17 -18.93,13.18 -18.93,28.4 0,15.41 8.77,28.42 19.15,28.42 0.61,0 1.27,-0.07 2.06,-0.22 4.81,-0.89 9.6,1.72 11.45,6.27 8.58,21.09 23.35,37.7 41.59,46.77 3.51,1.74 5.73,5.33 5.73,9.25l0 32.87c0,5.62 -4.49,10.2 -10.11,10.33l-63.13 1.35c-0.18,0 -0.36,0 -0.53,-0 -1.97,-0.04 -48.72,-0.76 -62.81,37.29 -15.98,43.16 -54.99,126.61 -60.67,138.72 -0.65,4.88 -2.48,24.51 8.08,37.17 6.7,8.04 17.71,12.11 32.73,12.11 5.7,-0 10.33,4.62 10.33,10.33 0,5.7 -4.63,10.33 -10.33,10.33 -21.51,-0 -37.9,-6.62 -48.7,-19.66 -18.27,-22.05 -12.5,-53.9 -12.24,-55.24 0.16,-0.86 0.43,-1.69 0.8,-2.48 0.44,-0.93 44.04,-93.66 60.62,-138.44 18.8,-50.76 77.19,-50.85 82.5,-50.76l52.79 -1.14 0 -16.6c-18.15,-10.61 -33.06,-27.2 -42.83,-47.68 -20.71,-1.7 -37.14,-23.02 -37.14,-48.97 0,-23.83 13.3,-43.36 31.45,-48.01 14.92,-44.79 52.21,-74.41 94.61,-74.41 42.39,0 79.69,29.62 94.6,74.41 18.15,4.65 31.45,24.17 31.45,48.01 0,25.96 -16.44,47.28 -37.15,48.97 -9.77,20.48 -24.68,37.07 -42.82,47.67l0 16.59 53.5 1.15c5.32,-0.07 63.7,0 82.5,50.76 16.59,44.79 60.18,137.52 60.61,138.44 0.37,0.79 0.64,1.62 0.81,2.48 0.25,1.34 6.02,33.2 -12.24,55.24 -10.81,13.04 -27.19,19.66 -48.7,19.66z"/>
   <path class="fil0" d="M293.63 172.24c0,9.41 -12.19,17.04 -27.22,17.04 -15.03,-0 -27.22,-7.63 -27.22,-17.04 0,-9.41 12.19,-17.04 27.22,-17.04 15.03,0 27.22,7.63 27.22,17.04z"/>
   <path class="fil0" d="M296.23 188.85c-18.71,0 -28.88,-9.5 -29.54,-10.14 -4.11,-3.97 -4.22,-10.51 -0.25,-14.61 3.91,-4.05 10.35,-4.21 14.46,-0.39 0.9,0.77 15.79,12.83 46.5,-6.26 4.85,-3.01 11.21,-1.52 14.23,3.32 3.01,4.84 1.52,11.21 -3.32,14.22 -16.89,10.5 -30.99,13.84 -42.08,13.84z"/>
  </g>
 </g>
</svg>
